<svg width="1080" height="1080" viewBox="0 0 1080 1080" fill="none" xmlns="http://www.w3.org/2000/svg">
<g clip-path="url(#clip0_120_39)">
<rect width="1080" height="1080" fill="white"/>
<path fill-rule="evenodd" clip-rule="evenodd" d="M428.685 540.453L395.807 525.588C393.8 524.68 392.909 522.319 393.816 520.312L419.969 462.469L404.475 421.408C404.474 421.406 404.474 421.403 404.473 421.401C403.388 418.526 400.158 417.065 397.276 418.154L376.332 426.054C374.935 426.581 373.827 427.619 373.212 428.979C372.598 430.339 372.55 431.857 373.077 433.253L373.145 433.434C374.231 436.316 377.462 437.776 380.344 436.688L390.849 432.727C392.909 431.95 395.21 432.99 395.987 435.05C396.765 437.11 395.725 439.411 393.664 440.188L383.159 444.15C379.661 445.469 375.952 445.243 372.787 443.812C369.623 442.382 367.003 439.747 365.682 436.248L365.614 436.067C364.335 432.678 364.453 428.994 365.945 425.693C367.437 422.393 370.126 419.871 373.515 418.592L387.567 413.292L391.013 405.67C391.525 404.539 392.534 403.711 393.743 403.429C404.25 400.987 412.809 393.985 417.224 384.22C421.394 374.998 421.225 364.54 417.027 355.581L403.878 384.662C402.971 386.669 400.609 387.56 398.602 386.653L365.299 371.595C363.291 370.688 362.4 368.326 363.308 366.319L376.456 337.238C366.956 340.003 358.994 346.784 354.824 356.007C350.409 365.772 350.806 376.822 355.912 386.325C356.5 387.418 356.544 388.723 356.033 389.854L350.965 401.063L357.531 404.032C364.346 407.113 367.383 415.162 364.302 421.976L364.223 422.152C362.684 425.554 359.907 428.014 356.664 429.241C357.885 432.487 357.872 436.197 356.334 439.599L356.255 439.775C354.716 443.177 351.939 445.637 348.696 446.864C349.917 450.11 349.904 453.82 348.366 457.222L348.287 457.398C346.748 460.8 343.971 463.26 340.728 464.488C341.949 467.733 341.936 471.443 340.398 474.845L340.319 475.021C337.238 481.835 329.188 484.871 322.374 481.79L316.654 479.205C315.771 487.208 320.117 495.127 327.697 498.555L328.119 498.746C337.647 503.053 348.902 498.808 353.209 489.282L367.629 457.388C368.536 455.381 370.898 454.491 372.905 455.398C374.913 456.306 375.804 458.667 374.896 460.674L361.34 490.657L389.752 503.503C391.759 504.41 392.651 506.772 391.743 508.779C390.836 510.786 388.474 511.677 386.467 510.769L357.459 497.654C350.05 507.51 336.529 511.3 324.834 506.012L324.411 505.821C312.847 500.592 306.584 488.001 309.128 475.802L301.975 472.568C295.16 469.486 292.123 461.436 295.204 454.623L295.283 454.447C296.821 451.045 299.598 448.585 302.842 447.358C301.621 444.112 301.634 440.402 303.172 437L303.251 436.824C304.789 433.422 307.566 430.962 310.81 429.735C309.589 426.489 309.602 422.779 311.14 419.377L311.219 419.201C312.757 415.799 315.534 413.339 318.778 412.111C317.557 408.866 317.57 405.156 319.108 401.754L319.187 401.578C322.268 394.764 330.318 391.728 337.132 394.809L343.698 397.777L347.978 388.311C342.561 377.019 342.385 364.159 347.556 352.721C353.926 338.633 367.472 329.165 382.909 328.011C384.312 327.907 385.667 328.549 386.474 329.702C387.28 330.855 387.419 332.349 386.84 333.63L372.217 365.972L398.253 377.744L412.876 345.403C413.455 344.121 414.668 343.239 416.067 343.083C417.465 342.927 418.844 343.52 419.691 344.643C429.022 356.993 430.861 373.418 424.491 387.505C419.705 398.091 410.979 406.039 400.15 409.854C405.284 410.204 410.004 413.472 411.937 418.594L424.615 452.192L425.448 450.352C426.355 448.345 428.717 447.454 430.724 448.362L461.45 462.254C462.112 461.673 462.815 461.175 463.561 460.758C466.548 459.051 470.345 458.198 474.953 458.198C479.476 458.198 483.188 459.051 486.089 460.758C489.076 462.379 491.337 465.238 492.873 469.334L522.057 546.134H505.289L479.049 476.63C478.281 474.667 476.873 473.686 474.825 473.686C472.777 473.686 471.327 474.667 470.473 476.63L443.081 546.134H426.441L428.685 540.453ZM431.618 533.028L402.726 519.965L427.916 464.252L427.918 464.247L431.072 457.271L456.928 468.961C456.877 469.084 456.827 469.208 456.777 469.334L431.618 533.028ZM348.987 436.489L349.067 436.312C350.336 433.506 349.085 430.19 346.278 428.92L325.879 419.698C323.072 418.428 319.756 419.679 318.487 422.486L318.407 422.662C317.138 425.469 318.389 428.785 321.196 430.054L341.595 439.277C344.402 440.546 347.718 439.295 348.987 436.489ZM341.019 454.112L341.099 453.935C342.368 451.129 341.117 447.813 338.31 446.544L317.911 437.321C315.104 436.052 311.788 437.302 310.519 440.109L310.439 440.286C309.17 443.092 310.421 446.408 313.228 447.678L333.627 456.9C336.434 458.169 339.75 456.919 341.019 454.112ZM325.659 474.523C328.466 475.793 331.782 474.542 333.051 471.734L333.131 471.559C334.4 468.752 333.149 465.436 330.342 464.167L309.943 454.944C307.136 453.675 303.82 454.926 302.551 457.732L302.471 457.908C301.202 460.715 302.453 464.032 305.26 465.301L325.659 474.523ZM356.955 418.865L357.035 418.689C358.304 415.882 357.053 412.567 354.246 411.297L333.847 402.074C331.04 400.805 327.724 402.056 326.455 404.863L326.375 405.039C325.106 407.846 326.357 411.162 329.165 412.431L349.563 421.654C352.37 422.923 355.686 421.672 356.955 418.865ZM601.568 474.838V459.734H557.792C553.014 459.734 548.918 460.374 545.504 461.654C542.091 462.848 539.275 464.555 537.056 466.774C534.923 468.992 533.344 471.638 532.32 474.71C531.382 477.696 530.912 480.982 530.912 484.566C530.912 487.552 531.296 490.539 532.064 493.526C532.918 496.512 534.368 499.2 536.416 501.59C538.55 503.979 541.451 505.899 545.12 507.35C548.79 508.8 553.526 509.526 559.328 509.526H579.424C582.07 509.526 584.246 509.824 585.952 510.422C587.744 511.019 589.152 511.83 590.176 512.854C591.2 513.792 591.926 514.944 592.352 516.31C592.779 517.59 592.992 518.912 592.992 520.278C592.992 523.435 592.011 526.038 590.048 528.086C588.171 530.048 585.184 531.03 581.088 531.03H532.448V546.134H580.576C585.526 546.134 589.707 545.494 593.12 544.214C596.619 542.934 599.478 541.184 601.696 538.966C603.915 536.662 605.536 533.974 606.56 530.902C607.584 527.83 608.096 524.459 608.096 520.79C608.096 517.718 607.67 514.646 606.816 511.574C606.048 508.502 604.555 505.771 602.336 503.382C600.203 500.992 597.259 499.072 593.504 497.622C589.75 496.086 584.928 495.318 579.04 495.318H558.816C556.256 495.318 554.166 495.062 552.544 494.55C550.923 493.952 549.6 493.184 548.576 492.246C547.638 491.222 546.955 490.112 546.528 488.918C546.187 487.638 546.016 486.358 546.016 485.078C546.016 482.091 546.912 479.659 548.704 477.782C550.496 475.819 553.355 474.838 557.28 474.838H601.568ZM616.816 546.134H633.456L660.848 476.63C661.702 474.667 663.152 473.686 665.2 473.686C667.248 473.686 668.656 474.667 669.424 476.63L695.664 546.134H712.432L683.248 469.334C681.712 465.238 679.451 462.379 676.464 460.758C673.563 459.051 669.851 458.198 665.328 458.198C660.72 458.198 656.923 459.051 653.936 460.758C651.035 462.379 648.774 465.238 647.152 469.334L616.816 546.134Z" fill="#F3A261"/>
<path d="M310.703 584V566.938H315.578L319.457 577.695C319.551 577.961 319.629 578.215 319.691 578.457C319.762 578.691 319.824 578.953 319.879 579.242H319.949C319.996 578.953 320.055 578.691 320.125 578.457C320.195 578.215 320.277 577.961 320.371 577.695L324.25 566.938H329.184V584H325.504V573.312C325.504 573.047 325.508 572.758 325.516 572.445C325.531 572.125 325.551 571.836 325.574 571.578H325.492C325.453 571.836 325.395 572.125 325.316 572.445C325.238 572.758 325.152 573.047 325.059 573.312L321.25 584H318.133L314.336 573.312C314.242 573.047 314.156 572.75 314.078 572.422C314 572.094 313.941 571.812 313.902 571.578H313.82C313.844 571.812 313.859 572.094 313.867 572.422C313.875 572.75 313.879 573.047 313.879 573.312V584H310.703ZM331.633 580.484C331.633 579.172 332.141 578.18 333.156 577.508C334.172 576.828 335.469 576.484 337.047 576.477H339.52V575.785C339.52 575.246 339.383 574.816 339.109 574.496C338.836 574.168 338.359 574.004 337.68 574.004C337.008 574.004 336.523 574.141 336.227 574.414C335.93 574.68 335.781 575.02 335.781 575.434V575.633L332.301 575.621V575.422C332.301 574.328 332.812 573.43 333.836 572.727C334.859 572.023 336.199 571.672 337.855 571.672C339.527 571.672 340.82 572.008 341.734 572.68C342.656 573.352 343.117 574.402 343.117 575.832V581.293C343.117 581.785 343.16 582.254 343.246 582.699C343.34 583.137 343.461 583.508 343.609 583.812V584H340.07C339.969 583.82 339.883 583.59 339.812 583.309C339.742 583.02 339.691 582.734 339.66 582.453C339.418 582.906 338.961 583.312 338.289 583.672C337.617 584.031 336.781 584.211 335.781 584.211C334.578 584.211 333.586 583.902 332.805 583.285C332.023 582.66 331.633 581.727 331.633 580.484ZM335.23 580.18C335.23 580.703 335.379 581.121 335.676 581.434C335.98 581.738 336.449 581.891 337.082 581.891C337.77 581.891 338.348 581.668 338.816 581.223C339.285 580.777 339.52 580.254 339.52 579.652V578.551H337.715C336.871 578.551 336.246 578.688 335.84 578.961C335.434 579.234 335.23 579.641 335.23 580.18ZM346 584V572.012H349.621V584H346ZM345.719 568.496C345.719 567.957 345.898 567.504 346.258 567.137C346.617 566.77 347.137 566.586 347.816 566.586C348.488 566.586 349.004 566.77 349.363 567.137C349.723 567.504 349.902 567.957 349.902 568.496C349.902 569.035 349.719 569.492 349.352 569.867C348.992 570.234 348.477 570.418 347.805 570.418C347.133 570.418 346.617 570.234 346.258 569.867C345.898 569.492 345.719 569.035 345.719 568.496ZM352.445 584V572.012H355.902L355.961 573.418H356.02C356.324 572.926 356.789 572.523 357.414 572.211C358.039 571.898 358.746 571.742 359.535 571.742C360.77 571.742 361.773 572.09 362.547 572.785C363.32 573.48 363.707 574.688 363.707 576.406V584H360.109V576.488C360.109 575.754 359.949 575.238 359.629 574.941C359.316 574.645 358.871 574.496 358.293 574.496C357.816 574.496 357.375 574.633 356.969 574.906C356.562 575.18 356.258 575.562 356.055 576.055V584H352.445ZM365.031 574.625V572.012H372.719V574.625H365.031ZM366.836 580.391V573.137L366.871 572.844V568.941H370.41V580.098C370.41 580.707 370.512 581.121 370.715 581.34C370.918 581.551 371.215 581.656 371.605 581.656C371.793 581.656 371.977 581.637 372.156 581.598C372.336 581.559 372.512 581.504 372.684 581.434V583.977C372.488 584.062 372.211 584.141 371.852 584.211C371.492 584.281 371.082 584.316 370.621 584.316C369.465 584.316 368.543 584.004 367.855 583.379C367.176 582.746 366.836 581.75 366.836 580.391ZM373.938 578.176V577.801C373.938 575.949 374.504 574.465 375.637 573.348C376.777 572.223 378.246 571.66 380.043 571.66C381.848 571.66 383.254 572.188 384.262 573.242C385.277 574.297 385.785 575.754 385.785 577.613V578.82H376.246V576.699H382.246V576.477C382.246 575.844 382.055 575.312 381.672 574.883C381.297 574.445 380.75 574.227 380.031 574.227C379.211 574.227 378.586 574.531 378.156 575.141C377.734 575.742 377.523 576.547 377.523 577.555V578.328C377.523 579.375 377.754 580.203 378.215 580.812C378.676 581.414 379.352 581.715 380.242 581.715C380.867 581.715 381.402 581.566 381.848 581.27C382.301 580.973 382.664 580.617 382.938 580.203L385.598 581.645C385.215 582.441 384.566 583.09 383.652 583.59C382.738 584.09 381.621 584.34 380.301 584.34C378.309 584.34 376.75 583.781 375.625 582.664C374.5 581.539 373.938 580.043 373.938 578.176ZM387.812 584V572.012H391.27L391.328 573.418H391.387C391.691 572.926 392.156 572.523 392.781 572.211C393.406 571.898 394.113 571.742 394.902 571.742C396.137 571.742 397.141 572.09 397.914 572.785C398.688 573.48 399.074 574.688 399.074 576.406V584H395.477V576.488C395.477 575.754 395.316 575.238 394.996 574.941C394.684 574.645 394.238 574.496 393.66 574.496C393.184 574.496 392.742 574.633 392.336 574.906C391.93 575.18 391.625 575.562 391.422 576.055V584H387.812ZM401.172 580.484C401.172 579.172 401.68 578.18 402.695 577.508C403.711 576.828 405.008 576.484 406.586 576.477H409.059V575.785C409.059 575.246 408.922 574.816 408.648 574.496C408.375 574.168 407.898 574.004 407.219 574.004C406.547 574.004 406.062 574.141 405.766 574.414C405.469 574.68 405.32 575.02 405.32 575.434V575.633L401.84 575.621V575.422C401.84 574.328 402.352 573.43 403.375 572.727C404.398 572.023 405.738 571.672 407.395 571.672C409.066 571.672 410.359 572.008 411.273 572.68C412.195 573.352 412.656 574.402 412.656 575.832V581.293C412.656 581.785 412.699 582.254 412.785 582.699C412.879 583.137 413 583.508 413.148 583.812V584H409.609C409.508 583.82 409.422 583.59 409.352 583.309C409.281 583.02 409.23 582.734 409.199 582.453C408.957 582.906 408.5 583.312 407.828 583.672C407.156 584.031 406.32 584.211 405.32 584.211C404.117 584.211 403.125 583.902 402.344 583.285C401.562 582.66 401.172 581.727 401.172 580.484ZM404.77 580.18C404.77 580.703 404.918 581.121 405.215 581.434C405.52 581.738 405.988 581.891 406.621 581.891C407.309 581.891 407.887 581.668 408.355 581.223C408.824 580.777 409.059 580.254 409.059 579.652V578.551H407.254C406.41 578.551 405.785 578.688 405.379 578.961C404.973 579.234 404.77 579.641 404.77 580.18ZM415.492 584V572.012H418.949L419.008 573.418H419.066C419.371 572.926 419.836 572.523 420.461 572.211C421.086 571.898 421.793 571.742 422.582 571.742C423.816 571.742 424.82 572.09 425.594 572.785C426.367 573.48 426.754 574.688 426.754 576.406V584H423.156V576.488C423.156 575.754 422.996 575.238 422.676 574.941C422.363 574.645 421.918 574.496 421.34 574.496C420.863 574.496 420.422 574.633 420.016 574.906C419.609 575.18 419.305 575.562 419.102 576.055V584H415.492ZM428.805 578.176V577.801C428.805 575.902 429.367 574.402 430.492 573.301C431.625 572.199 433.129 571.648 435.004 571.648C436.801 571.648 438.172 572.082 439.117 572.949C440.07 573.809 440.578 574.879 440.641 576.16L440.652 576.383H437.148V576.23C437.148 575.668 436.969 575.203 436.609 574.836C436.258 574.469 435.727 574.285 435.016 574.285C434.18 574.285 433.547 574.586 433.117 575.188C432.695 575.781 432.484 576.594 432.484 577.625V578.352C432.484 579.383 432.691 580.203 433.105 580.812C433.52 581.414 434.152 581.715 435.004 581.715C435.777 581.715 436.328 581.523 436.656 581.141C436.984 580.75 437.148 580.289 437.148 579.758V579.617H440.652V579.793C440.645 581.059 440.152 582.133 439.176 583.016C438.199 583.898 436.809 584.34 435.004 584.34C433.137 584.34 431.637 583.789 430.504 582.688C429.371 581.578 428.805 580.074 428.805 578.176ZM441.953 578.176V577.801C441.953 575.949 442.52 574.465 443.652 573.348C444.793 572.223 446.262 571.66 448.059 571.66C449.863 571.66 451.27 572.188 452.277 573.242C453.293 574.297 453.801 575.754 453.801 577.613V578.82H444.262V576.699H450.262V576.477C450.262 575.844 450.07 575.312 449.688 574.883C449.312 574.445 448.766 574.227 448.047 574.227C447.227 574.227 446.602 574.531 446.172 575.141C445.75 575.742 445.539 576.547 445.539 577.555V578.328C445.539 579.375 445.77 580.203 446.23 580.812C446.691 581.414 447.367 581.715 448.258 581.715C448.883 581.715 449.418 581.566 449.863 581.27C450.316 580.973 450.68 580.617 450.953 580.203L453.613 581.645C453.23 582.441 452.582 583.09 451.668 583.59C450.754 584.09 449.637 584.34 448.316 584.34C446.324 584.34 444.766 583.781 443.641 582.664C442.516 581.539 441.953 580.043 441.953 578.176ZM461.031 579.219V578.773H464.723V579.113C464.715 579.941 464.969 580.562 465.484 580.977C466 581.391 466.719 581.598 467.641 581.598C468.547 581.598 469.242 581.406 469.727 581.023C470.219 580.641 470.465 580.129 470.465 579.488C470.465 578.848 470.223 578.348 469.738 577.988C469.262 577.629 468.238 577.238 466.668 576.816C464.887 576.324 463.543 575.672 462.637 574.859C461.738 574.047 461.285 572.949 461.277 571.566C461.277 570.059 461.844 568.859 462.977 567.969C464.109 567.07 465.625 566.621 467.523 566.621C469.422 566.621 470.945 567.07 472.094 567.969C473.242 568.867 473.816 570.082 473.816 571.613V572.012H470.195V571.719C470.195 571.008 469.973 570.441 469.527 570.02C469.082 569.59 468.426 569.375 467.559 569.375C466.676 569.375 466.027 569.547 465.613 569.891C465.199 570.234 464.992 570.695 464.992 571.273C464.992 571.836 465.227 572.273 465.695 572.586C466.172 572.891 467.199 573.258 468.777 573.688C470.52 574.172 471.852 574.832 472.773 575.668C473.695 576.496 474.16 577.672 474.168 579.195C474.168 580.812 473.57 582.07 472.375 582.969C471.188 583.867 469.613 584.316 467.652 584.316C465.707 584.316 464.117 583.883 462.883 583.016C461.648 582.148 461.031 580.883 461.031 579.219ZM475.703 578.176V577.801C475.703 575.926 476.285 574.434 477.449 573.324C478.613 572.207 480.137 571.648 482.02 571.648C483.902 571.648 485.426 572.207 486.59 573.324C487.754 574.434 488.336 575.926 488.336 577.801V578.176C488.336 580.059 487.754 581.559 486.59 582.676C485.426 583.785 483.902 584.34 482.02 584.34C480.137 584.34 478.613 583.785 477.449 582.676C476.285 581.559 475.703 580.059 475.703 578.176ZM479.383 577.625V578.352C479.383 579.414 479.609 580.23 480.062 580.801C480.523 581.371 481.176 581.656 482.02 581.656C482.871 581.656 483.523 581.371 483.977 580.801C484.43 580.23 484.656 579.414 484.656 578.352V577.625C484.656 576.562 484.426 575.75 483.965 575.188C483.504 574.617 482.855 574.332 482.02 574.332C481.184 574.332 480.535 574.617 480.074 575.188C479.613 575.75 479.383 576.562 479.383 577.625ZM490.516 584V566.258H494.137V584H490.516ZM496.855 579.453V572.012H500.465V579.406C500.465 580.203 500.625 580.758 500.945 581.07C501.273 581.375 501.715 581.527 502.27 581.527C502.777 581.527 503.227 581.379 503.617 581.082C504.016 580.785 504.312 580.414 504.508 579.969V572.012H508.117V584H504.66L504.602 582.582H504.543C504.199 583.098 503.715 583.504 503.09 583.801C502.473 584.098 501.762 584.246 500.957 584.246C499.754 584.246 498.77 583.879 498.004 583.145C497.238 582.41 496.855 581.18 496.855 579.453ZM509.547 574.625V572.012H517.234V574.625H509.547ZM511.352 580.391V573.137L511.387 572.844V568.941H514.926V580.098C514.926 580.707 515.027 581.121 515.23 581.34C515.434 581.551 515.73 581.656 516.121 581.656C516.309 581.656 516.492 581.637 516.672 581.598C516.852 581.559 517.027 581.504 517.199 581.434V583.977C517.004 584.062 516.727 584.141 516.367 584.211C516.008 584.281 515.598 584.316 515.137 584.316C513.98 584.316 513.059 584.004 512.371 583.379C511.691 582.746 511.352 581.75 511.352 580.391ZM519.133 584V572.012H522.754V584H519.133ZM518.852 568.496C518.852 567.957 519.031 567.504 519.391 567.137C519.75 566.77 520.27 566.586 520.949 566.586C521.621 566.586 522.137 566.77 522.496 567.137C522.855 567.504 523.035 567.957 523.035 568.496C523.035 569.035 522.852 569.492 522.484 569.867C522.125 570.234 521.609 570.418 520.938 570.418C520.266 570.418 519.75 570.234 519.391 569.867C519.031 569.492 518.852 569.035 518.852 568.496ZM524.945 578.176V577.801C524.945 575.926 525.527 574.434 526.691 573.324C527.855 572.207 529.379 571.648 531.262 571.648C533.145 571.648 534.668 572.207 535.832 573.324C536.996 574.434 537.578 575.926 537.578 577.801V578.176C537.578 580.059 536.996 581.559 535.832 582.676C534.668 583.785 533.145 584.34 531.262 584.34C529.379 584.34 527.855 583.785 526.691 582.676C525.527 581.559 524.945 580.059 524.945 578.176ZM528.625 577.625V578.352C528.625 579.414 528.852 580.23 529.305 580.801C529.766 581.371 530.418 581.656 531.262 581.656C532.113 581.656 532.766 581.371 533.219 580.801C533.672 580.23 533.898 579.414 533.898 578.352V577.625C533.898 576.562 533.668 575.75 533.207 575.188C532.746 574.617 532.098 574.332 531.262 574.332C530.426 574.332 529.777 574.617 529.316 575.188C528.855 575.75 528.625 576.562 528.625 577.625ZM539.734 584V572.012H543.191L543.25 573.418H543.309C543.613 572.926 544.078 572.523 544.703 572.211C545.328 571.898 546.035 571.742 546.824 571.742C548.059 571.742 549.062 572.09 549.836 572.785C550.609 573.48 550.996 574.688 550.996 576.406V584H547.398V576.488C547.398 575.754 547.238 575.238 546.918 574.941C546.605 574.645 546.16 574.496 545.582 574.496C545.105 574.496 544.664 574.633 544.258 574.906C543.852 575.18 543.547 575.562 543.344 576.055V584H539.734ZM553.012 580.191L556.457 580.215V580.414C556.457 580.977 556.645 581.383 557.02 581.633C557.395 581.875 557.902 581.996 558.543 581.996C559.191 581.996 559.676 581.883 559.996 581.656C560.324 581.422 560.488 581.105 560.488 580.707C560.488 580.301 560.309 580 559.949 579.805C559.59 579.609 558.777 579.383 557.512 579.125C556.066 578.836 555.012 578.387 554.348 577.777C553.684 577.168 553.352 576.371 553.352 575.387C553.352 574.223 553.82 573.309 554.758 572.645C555.695 571.98 556.973 571.648 558.59 571.648C560.184 571.648 561.453 571.992 562.398 572.68C563.352 573.367 563.828 574.312 563.828 575.516V575.68H560.395V575.469C560.395 575.008 560.242 574.652 559.938 574.402C559.633 574.152 559.172 574.027 558.555 574.027C557.953 574.027 557.516 574.129 557.242 574.332C556.977 574.527 556.844 574.797 556.844 575.141C556.844 575.484 557.023 575.758 557.383 575.961C557.742 576.156 558.562 576.383 559.844 576.641C561.297 576.922 562.363 577.359 563.043 577.953C563.723 578.539 564.062 579.348 564.062 580.379C564.062 581.637 563.594 582.613 562.656 583.309C561.727 583.996 560.367 584.34 558.578 584.34C556.812 584.34 555.445 583.992 554.477 583.297C553.508 582.602 553.02 581.617 553.012 580.344V580.191ZM571.469 580.484C571.469 579.172 571.977 578.18 572.992 577.508C574.008 576.828 575.305 576.484 576.883 576.477H579.355V575.785C579.355 575.246 579.219 574.816 578.945 574.496C578.672 574.168 578.195 574.004 577.516 574.004C576.844 574.004 576.359 574.141 576.062 574.414C575.766 574.68 575.617 575.02 575.617 575.434V575.633L572.137 575.621V575.422C572.137 574.328 572.648 573.43 573.672 572.727C574.695 572.023 576.035 571.672 577.691 571.672C579.363 571.672 580.656 572.008 581.57 572.68C582.492 573.352 582.953 574.402 582.953 575.832V581.293C582.953 581.785 582.996 582.254 583.082 582.699C583.176 583.137 583.297 583.508 583.445 583.812V584H579.906C579.805 583.82 579.719 583.59 579.648 583.309C579.578 583.02 579.527 582.734 579.496 582.453C579.254 582.906 578.797 583.312 578.125 583.672C577.453 584.031 576.617 584.211 575.617 584.211C574.414 584.211 573.422 583.902 572.641 583.285C571.859 582.66 571.469 581.727 571.469 580.484ZM575.066 580.18C575.066 580.703 575.215 581.121 575.512 581.434C575.816 581.738 576.285 581.891 576.918 581.891C577.605 581.891 578.184 581.668 578.652 581.223C579.121 580.777 579.355 580.254 579.355 579.652V578.551H577.551C576.707 578.551 576.082 578.688 575.676 578.961C575.27 579.234 575.066 579.641 575.066 580.18ZM584.43 574.625V572.012H592.117V574.625H584.43ZM586.234 580.391V573.137L586.27 572.844V568.941H589.809V580.098C589.809 580.707 589.91 581.121 590.113 581.34C590.316 581.551 590.613 581.656 591.004 581.656C591.191 581.656 591.375 581.637 591.555 581.598C591.734 581.559 591.91 581.504 592.082 581.434V583.977C591.887 584.062 591.609 584.141 591.25 584.211C590.891 584.281 590.48 584.316 590.02 584.316C588.863 584.316 587.941 584.004 587.254 583.379C586.574 582.746 586.234 581.75 586.234 580.391ZM599.324 588.863L599.348 586.285C599.559 586.348 599.785 586.395 600.027 586.426C600.277 586.465 600.516 586.484 600.742 586.484C601.281 586.484 601.746 586.312 602.137 585.969C602.527 585.625 602.867 584.957 603.156 583.965H603.051L598.375 572.012H601.984L604.375 578.867C604.469 579.148 604.543 579.402 604.598 579.629C604.652 579.855 604.703 580.09 604.75 580.332H604.82C604.875 580.09 604.93 579.855 604.984 579.629C605.039 579.402 605.113 579.148 605.207 578.867L607.562 572.012H610.797L605.898 585.195C605.391 586.547 604.754 587.535 603.988 588.16C603.223 588.793 602.27 589.109 601.129 589.109C600.723 589.109 600.379 589.09 600.098 589.051C599.816 589.012 599.559 588.949 599.324 588.863ZM611.266 578.176V577.801C611.266 575.926 611.848 574.434 613.012 573.324C614.176 572.207 615.699 571.648 617.582 571.648C619.465 571.648 620.988 572.207 622.152 573.324C623.316 574.434 623.898 575.926 623.898 577.801V578.176C623.898 580.059 623.316 581.559 622.152 582.676C620.988 583.785 619.465 584.34 617.582 584.34C615.699 584.34 614.176 583.785 613.012 582.676C611.848 581.559 611.266 580.059 611.266 578.176ZM614.945 577.625V578.352C614.945 579.414 615.172 580.23 615.625 580.801C616.086 581.371 616.738 581.656 617.582 581.656C618.434 581.656 619.086 581.371 619.539 580.801C619.992 580.23 620.219 579.414 620.219 578.352V577.625C620.219 576.562 619.988 575.75 619.527 575.188C619.066 574.617 618.418 574.332 617.582 574.332C616.746 574.332 616.098 574.617 615.637 575.188C615.176 575.75 614.945 576.562 614.945 577.625ZM625.949 579.453V572.012H629.559V579.406C629.559 580.203 629.719 580.758 630.039 581.07C630.367 581.375 630.809 581.527 631.363 581.527C631.871 581.527 632.32 581.379 632.711 581.082C633.109 580.785 633.406 580.414 633.602 579.969V572.012H637.211V584H633.754L633.695 582.582H633.637C633.293 583.098 632.809 583.504 632.184 583.801C631.566 584.098 630.855 584.246 630.051 584.246C628.848 584.246 627.863 583.879 627.098 583.145C626.332 582.41 625.949 581.18 625.949 579.453ZM640 584V572.012H643.492L643.551 573.383H643.598C643.855 572.922 644.207 572.527 644.652 572.199C645.105 571.863 645.613 571.695 646.176 571.695C646.355 571.695 646.531 571.715 646.703 571.754C646.883 571.793 647.012 571.828 647.09 571.859V574.848C646.949 574.809 646.793 574.781 646.621 574.766C646.457 574.742 646.273 574.73 646.07 574.73C645.547 574.73 645.062 574.891 644.617 575.211C644.18 575.523 643.852 575.93 643.633 576.43V584H640ZM654.859 584V566.938H665.887V569.797H658.586V574.355H664.961V577.121H658.586V584H654.859ZM667.867 584V572.012H671.488V584H667.867ZM667.586 568.496C667.586 567.957 667.766 567.504 668.125 567.137C668.484 566.77 669.004 566.586 669.684 566.586C670.355 566.586 670.871 566.77 671.23 567.137C671.59 567.504 671.77 567.957 671.77 568.496C671.77 569.035 671.586 569.492 671.219 569.867C670.859 570.234 670.344 570.418 669.672 570.418C669 570.418 668.484 570.234 668.125 569.867C667.766 569.492 667.586 569.035 667.586 568.496ZM674.312 584V572.012H677.77L677.828 573.418H677.887C678.191 572.926 678.656 572.523 679.281 572.211C679.906 571.898 680.613 571.742 681.402 571.742C682.637 571.742 683.641 572.09 684.414 572.785C685.188 573.48 685.574 574.688 685.574 576.406V584H681.977V576.488C681.977 575.754 681.816 575.238 681.496 574.941C681.184 574.645 680.738 574.496 680.16 574.496C679.684 574.496 679.242 574.633 678.836 574.906C678.43 575.18 678.125 575.562 677.922 576.055V584H674.312ZM688.316 587.539L689.629 585.277C689.926 585.559 690.41 585.832 691.082 586.098C691.754 586.371 692.473 586.508 693.238 586.508C694.066 586.508 694.754 586.254 695.301 585.746C695.855 585.246 696.133 584.453 696.133 583.367V582.676C695.82 583.152 695.379 583.527 694.809 583.801C694.238 584.074 693.547 584.211 692.734 584.211C691.203 584.211 689.969 583.66 689.031 582.559C688.094 581.449 687.625 579.992 687.625 578.188V577.812C687.625 576 688.086 574.543 689.008 573.441C689.938 572.332 691.18 571.777 692.734 571.777C693.492 571.777 694.18 571.934 694.797 572.246C695.422 572.551 695.871 572.945 696.145 573.43H696.203L696.262 572.012H699.707V583.133C699.707 585.062 699.133 586.543 697.984 587.574C696.836 588.613 695.363 589.133 693.566 589.133C692.48 589.133 691.484 588.98 690.578 588.676C689.672 588.371 688.918 587.992 688.316 587.539ZM691.281 578.305C691.281 579.281 691.488 580.07 691.902 580.672C692.324 581.273 692.965 581.574 693.824 581.574C694.387 581.574 694.867 581.41 695.266 581.082C695.664 580.754 695.949 580.379 696.121 579.957V576.09C695.941 575.605 695.648 575.207 695.242 574.895C694.844 574.574 694.355 574.414 693.777 574.414C692.941 574.414 692.316 574.719 691.902 575.328C691.488 575.938 691.281 576.727 691.281 577.695V578.305ZM701.875 578.176V577.801C701.875 575.949 702.441 574.465 703.574 573.348C704.715 572.223 706.184 571.66 707.98 571.66C709.785 571.66 711.191 572.188 712.199 573.242C713.215 574.297 713.723 575.754 713.723 577.613V578.82H704.184V576.699H710.184V576.477C710.184 575.844 709.992 575.312 709.609 574.883C709.234 574.445 708.688 574.227 707.969 574.227C707.148 574.227 706.523 574.531 706.094 575.141C705.672 575.742 705.461 576.547 705.461 577.555V578.328C705.461 579.375 705.691 580.203 706.152 580.812C706.613 581.414 707.289 581.715 708.18 581.715C708.805 581.715 709.34 581.566 709.785 581.27C710.238 580.973 710.602 580.617 710.875 580.203L713.535 581.645C713.152 582.441 712.504 583.09 711.59 583.59C710.676 584.09 709.559 584.34 708.238 584.34C706.246 584.34 704.688 583.781 703.562 582.664C702.438 581.539 701.875 580.043 701.875 578.176ZM715.75 584V572.012H719.242L719.301 573.383H719.348C719.605 572.922 719.957 572.527 720.402 572.199C720.855 571.863 721.363 571.695 721.926 571.695C722.105 571.695 722.281 571.715 722.453 571.754C722.633 571.793 722.762 571.828 722.84 571.859V574.848C722.699 574.809 722.543 574.781 722.371 574.766C722.207 574.742 722.023 574.73 721.82 574.73C721.297 574.73 720.812 574.891 720.367 575.211C719.93 575.523 719.602 575.93 719.383 576.43V584H715.75ZM728.77 569.797V566.938H742.375V569.797H737.441V584H733.703V569.797H728.77ZM744.039 584V572.012H747.66V584H744.039ZM743.758 568.496C743.758 567.957 743.938 567.504 744.297 567.137C744.656 566.77 745.176 566.586 745.855 566.586C746.527 566.586 747.043 566.77 747.402 567.137C747.762 567.504 747.941 567.957 747.941 568.496C747.941 569.035 747.758 569.492 747.391 569.867C747.031 570.234 746.516 570.418 745.844 570.418C745.172 570.418 744.656 570.234 744.297 569.867C743.938 569.492 743.758 569.035 743.758 568.496ZM750.484 588.91V572.012H753.895L753.953 573.383H754.012C754.277 572.914 754.723 572.527 755.348 572.223C755.973 571.91 756.672 571.754 757.445 571.754C758.984 571.754 760.227 572.297 761.172 573.383C762.117 574.469 762.59 575.941 762.59 577.801V578.176C762.59 580.012 762.121 581.48 761.184 582.582C760.254 583.684 759.031 584.234 757.516 584.234C756.742 584.234 756.055 584.105 755.453 583.848C754.859 583.59 754.402 583.238 754.082 582.793V588.91H750.484ZM754.082 579.957C754.254 580.395 754.551 580.777 754.973 581.105C755.402 581.426 755.906 581.586 756.484 581.586C757.305 581.586 757.914 581.301 758.312 580.73C758.719 580.152 758.922 579.359 758.922 578.352V577.625C758.922 576.609 758.719 575.82 758.312 575.258C757.914 574.695 757.301 574.414 756.473 574.414C755.871 574.414 755.367 574.574 754.961 574.895C754.562 575.207 754.27 575.574 754.082 575.996V579.957ZM764.09 580.191L767.535 580.215V580.414C767.535 580.977 767.723 581.383 768.098 581.633C768.473 581.875 768.98 581.996 769.621 581.996C770.27 581.996 770.754 581.883 771.074 581.656C771.402 581.422 771.566 581.105 771.566 580.707C771.566 580.301 771.387 580 771.027 579.805C770.668 579.609 769.855 579.383 768.59 579.125C767.145 578.836 766.09 578.387 765.426 577.777C764.762 577.168 764.43 576.371 764.43 575.387C764.43 574.223 764.898 573.309 765.836 572.645C766.773 571.98 768.051 571.648 769.668 571.648C771.262 571.648 772.531 571.992 773.477 572.68C774.43 573.367 774.906 574.312 774.906 575.516V575.68H771.473V575.469C771.473 575.008 771.32 574.652 771.016 574.402C770.711 574.152 770.25 574.027 769.633 574.027C769.031 574.027 768.594 574.129 768.32 574.332C768.055 574.527 767.922 574.797 767.922 575.141C767.922 575.484 768.102 575.758 768.461 575.961C768.82 576.156 769.641 576.383 770.922 576.641C772.375 576.922 773.441 577.359 774.121 577.953C774.801 578.539 775.141 579.348 775.141 580.379C775.141 581.637 774.672 582.613 773.734 583.309C772.805 583.996 771.445 584.34 769.656 584.34C767.891 584.34 766.523 583.992 765.555 583.297C764.586 582.602 764.098 581.617 764.09 580.344V580.191Z" fill="#264653"/>
</g>
<defs>
<clipPath id="clip0_120_39">
<rect width="1080" height="1080" fill="white"/>
</clipPath>
</defs>
</svg>
